<svg xmlns="http://www.w3.org/2000/svg" viewBox="0 0 200 100" fill="black">
  <path d="M190.5 56.2c-2.5-4.2-5.5-5.9-8.5-4.8 -2.4 .9-2.9 3.6-1.4 6.7 1.5 3.3 5 4.9 8.2 3.8 3.1-1 3.9-3.7 1.7-5.7zm-26.8-24.6c-4.4-1.5-8.8 .7-9.8 4.9 -1.1 4.5 1.5 8.9 5.8 9.9 4.3 1 9.4-1.9 9.8-6.6 .3-3.8-2.6-7.1-5.8-8.2zm-20.2-2.1c-1.3-4.5-6.1-7.2-10.7-6.1 -4.7 1.1-7.7 5.7-6.7 10.2 .9 4.6 9.3 15.3 13.7 14.3 4.4-1.1 5.3-13.3 3.7-18.4zm-76.3 7.8c-2.3-4.1-7.6-5.5-11.8-3.1 -4.1 2.3-5.6 7.6-3.2 11.8 2.4 4.2 7.8 5.7 11.9 3.3 4.1-2.4 5.5-7.8 3.1-12zm-33.8-1.5c-4.5-1.1-9.1 1.7-10.1 6.1 -1.1 4.5 1.6 9 6.2 10.1 4.5 1.1 10.3-2.6 10.6-7.2 .4-3.6-2.5-7.9-6.7-9z" style="fill:#000"/>
  <text x="100" y="80" font-family="Arial, sans-serif" font-weight="900" font-size="60" text-anchor="middle">PUMA</text>
</svg>
