<?xml version="1.0" encoding="utf-8"?>
<!-- Generator: Adobe Illustrator 18.0.0, SVG Export Plug-In . SVG Version: 6.00 Build 0)  -->
<!DOCTYPE svg PUBLIC "-//W3C//DTD SVG 1.1//EN" "http://www.w3.org/Graphics/SVG/1.1/DTD/svg11.dtd">
<svg version="1.1" id="Layer_1" xmlns="http://www.w3.org/2000/svg" xmlns:xlink="http://www.w3.org/1999/xlink" x="0px" y="0px"
	 viewBox="0 0 507 175.5" enable-background="new 0 0 507 175.5" xml:space="preserve">
<g>
	<g>
		<path fill="#EFEFEF" d="M63.7,126c0,9.5,0,18.2,0,27.3c-9.3,0-18.1,0-27.3,0c0-18.2,0-36.4,0-55.6c2.2,0,4.4,0,6.6,0
			c15.4,0,30.8,0.3,46.1,0c10.2-0.3,15.3-7.2,13.1-16.7c-1.4-6.1-6.5-9.4-15.7-9.5c-14.3-0.2-28.7-0.1-43-0.1c-2.2,0-4.5,0-7.1,0
			c0-9.6,0-18.7,0-28.6c2.2,0,4.5,0,6.7,0c18.9,0.3,37.8,0,56.7,1c19.7,1.1,34.4,13,38.9,29.6c4.9,18-1.2,34.2-16.6,44.6
			c-0.8,0.6-1.6,1.2-2.8,2c7.5,11,14.7,21.8,22.7,33.7c-13.4,0-25.8,0.1-38.1-0.2c-1.4,0-2.9-2.1-4-3.5c-4.4-6.3-8.8-12.6-12.8-19.2
			c-2.3-3.9-5.1-5.4-9.6-5C73.3,126.3,69,126,63.7,126z"/>
	</g>
	<g>
		<rect x="146.1" y="45" fill="#EFEFEF" width="93.1" height="19.8"/>
	</g>
	<g>
		<rect x="146.1" y="78.5" fill="#F26522" width="93.1" height="19.8"/>
	</g>
	<g>
		<rect x="146.1" y="111.9" fill="#EFEFEF" width="93.1" height="19.8"/>
	</g>
	<g>
		<polygon fill="#EFEFEF" points="359.3,45 324.4,45 304.4,67.3 285.5,45 248.7,45 285.5,88.4 247.2,131.7 284.2,131.7 300.6,111.9 
			300.6,111.9 304.1,107.9 325.1,131.7 359.3,131.7 321.9,87.7 		"/>
	</g>
	<g>
		<polygon fill="#F26522" points="279.5,88.3 278.4,89.4 253.3,113.6 253.3,98.2 238.2,98.2 238.2,78.5 253.3,78.5 253.3,63 
			278.4,87.3 		"/>
	</g>
	<g>
		<polygon fill="#EFEFEF" points="279.6,88.4 278.6,89.4 279.5,88.3 		"/>
	</g>
	<g>
		<polygon fill="#EFEFEF" points="279.6,88.3 279.5,88.3 278.6,87.3 		"/>
	</g>
	<g>
		<path fill="#F26522" d="M417.9,52.1c-1.2-0.8-2.4-1.5-3.7-2.2c-5.2-2.8-11-4.5-17.3-5c-6.3-0.4-12.3,0.4-17.8,2.4
			c-1.4,0.5-2.7,1-4,1.7c-13.6,6.5-23.4,19.9-24.6,36c-1.4,18.7,9.4,35.5,25.6,42.8c0.4,0.2,0.8,0.3,1.1,0.5
			c0.5,0.2,0.9,0.4,1.4,0.5c1.1,0.4,2.3,0.8,3.4,1.1c0.4,0.1,0.9,0.3,1.4,0.4c0.4,0.1,0.8,0.2,1.2,0.3c2,0.4,4.1,0.7,6.1,0.9
			c3.7,0.3,7.3,0.1,10.7-0.5c0.5-0.1,1-0.2,1.5-0.3c1.9-0.4,3.7-0.9,5.5-1.6c0.4-0.2,0.9-0.3,1.3-0.5c15-5.9,26.1-20.1,27.3-37.2
			C438.2,75.2,430.4,60.5,417.9,52.1z M429.1,95.6c-1.4,19.6-18.5,34.4-38.1,33c-19.6-1.4-34.4-18.5-33-38.1
			c1.4-19.6,18.5-34.4,38.1-33C415.7,58.9,430.5,75.9,429.1,95.6z"/>
	</g>
	<g>
		<rect x="447.6" y="45" fill="#EFEFEF" width="23.2" height="86.7"/>
	</g>
	<g>
		
			<ellipse transform="matrix(0.9017 0.4325 -0.4325 0.9017 94.8622 -150.732)" fill="#F26522" cx="378.8" cy="133.2" rx="4.8" ry="5.6"/>
		<path fill="#FFFFFF" d="M384.5,130.6c-0.4-1.5-1.4-2.7-2.8-3.4c-0.7-0.3-1.5-0.5-2.2-0.5c-1.2,0-2.4,0.4-3.4,1.1
			c-1,0.7-1.9,1.7-2.5,2.9c-1.6,3.3-0.5,7.1,2.4,8.5c0.7,0.3,1.5,0.5,2.2,0.5c2.4,0,4.7-1.6,5.9-4C384.9,134,385,132.1,384.5,130.6z
			 M382.2,134.8c-0.8,1.7-2.4,2.8-4,2.8c-0.5,0-0.9-0.1-1.4-0.3c-1.9-0.9-2.5-3.5-1.4-5.8c0.7-1.4,1.9-2.4,3.1-2.7
			c0.3-0.1,0.6-0.1,0.9-0.1c0.5,0,0.9,0.1,1.4,0.3c0.5,0.2,0.8,0.5,1.1,0.9C382.9,131.2,383.1,133.1,382.2,134.8z"/>
	</g>
	<g>
		
			<ellipse transform="matrix(0.9433 0.3319 -0.3319 0.9433 67.8659 -127.2263)" fill="#F26522" cx="406.3" cy="135" rx="5.4" ry="6.3"/>
		<path fill="#FFFFFF" d="M412.4,131.7c-0.5-1.4-1.5-2.5-2.7-3.2c-0.3-0.2-0.6-0.3-0.9-0.4c-0.6-0.2-1.2-0.3-1.9-0.3
			c-2.2,0-4.2,1.2-5.6,3.1c-0.4,0.6-0.8,1.3-1,2c-0.7,1.8-0.6,3.8,0,5.4c0.7,1.7,1.9,3,3.6,3.6c0.6,0.2,1.2,0.3,1.9,0.3
			c2.8,0,5.5-2.1,6.6-5.1C413,135.3,413,133.4,412.4,131.7z M410.5,136.5c-0.8,2.2-2.7,3.8-4.7,3.8c-0.4,0-0.8-0.1-1.2-0.2
			c-1.1-0.4-1.9-1.2-2.4-2.4c-0.5-1.3-0.5-2.7,0-4.1c0.8-2.2,2.7-3.8,4.7-3.8c0.4,0,0.8,0.1,1.2,0.2c1.1,0.4,1.9,1.2,2.4,2.4
			C411,133.7,411,135.1,410.5,136.5z"/>
	</g>
	<g>
		<circle fill="#F1F2F2" cx="377.3" cy="53" r="3.4"/>
	</g>
	<g>
		<circle fill="#F1F2F2" cx="415.7" cy="55.8" r="3.4"/>
	</g>
	<g>
		<path fill="#F26522" d="M417.6,56.1l0.3-3.5c0,0,0,0,0,0l1.3-17.4c0.9-12.1-8.4-22.6-20.6-23c-11.6-0.4-21.4,8.8-22.2,20.5
			L374.8,53l0,0.2l0,0.1c0,0.4,0.3,0.8,0.7,0.8l2.3,0.2c0.4,0,0.8-0.3,0.8-0.7l0-0.4l0,0l1.5-20.4c0.7-10.3,10-18.2,20.3-16.7
			c9,1.4,15.6,9.5,14.9,18.7l-1.5,20.9l0,0l0,0.4c0,0.4,0.3,0.8,0.7,0.8l2.3,0.2c0.4,0,0.8-0.3,0.8-0.7L417.6,56.1L417.6,56.1z"/>
	</g>
	<g>
		<path fill="#EFEFEF" d="M147.8,147c0-0.9,0.7-1.6,2.4-1.6c0.8,0,1.7,0.2,2.5,0.8l0.3-0.8c-0.7-0.5-1.8-0.8-2.8-0.8
			c-2.3,0-3.3,1.2-3.3,2.5c0,3.4,5.6,1.8,5.6,4.3c0,0.9-0.7,1.6-2.4,1.6c-1.2,0-2.3-0.5-3-1.1l-0.4,0.7c0.7,0.7,2,1.2,3.4,1.2
			c2.3,0,3.4-1.2,3.4-2.5C153.4,148,147.8,149.5,147.8,147z"/>
		<path fill="#EFEFEF" d="M167.9,144.6v4.1h-5.7v-4.1h-1v9.1h1v-4.2h5.7v4.2h0.9v-9.1H167.9z"/>
		<path fill="#EFEFEF" d="M181.2,144.6h-1l-4.2,9.1h1l1.1-2.4h5.1l1.1,2.4h1L181.2,144.6z M178.5,150.5l2.2-4.9l2.2,4.9H178.5z"/>
		<path fill="#EFEFEF" d="M199.2,144.6v7.4l-5.9-7.4h-0.8v9.1h1v-7.4l5.9,7.4h0.8v-9.1H199.2z"/>
		<path fill="#EFEFEF" d="M209.3,152.9l6-7.6v-0.7h-7.2v0.8h5.9l-6,7.6v0.7h7.5v-0.8H209.3z"/>
		<path fill="#EFEFEF" d="M226.9,144.5c-2.8,0-4.8,2-4.8,4.6c0,2.6,2,4.6,4.8,4.6c2.7,0,4.8-2,4.8-4.6
			C231.7,146.5,229.7,144.5,226.9,144.5z M226.9,152.9c-2.2,0-3.8-1.6-3.8-3.8c0-2.2,1.6-3.8,3.8-3.8c2.2,0,3.8,1.6,3.8,3.8
			C230.7,151.3,229.1,152.9,226.9,152.9z"/>
		<path fill="#EFEFEF" d="M254.4,149c0.8-0.3,1.4-1,1.4-2.1c0-1.5-1.2-2.3-3.2-2.3h-3.9v9.1h4.2c2.3,0,3.4-0.9,3.4-2.4
			C256.3,150,255.6,149.3,254.4,149z M249.7,145.4h2.9c1.5,0,2.3,0.6,2.3,1.6c0,1.1-0.8,1.7-2.3,1.7h-2.9V145.4z M252.9,152.9h-3.2
			v-3.4h3.2c1.6,0,2.5,0.5,2.5,1.7S254.5,152.9,252.9,152.9z"/>
		<path fill="#EFEFEF" d="M270.7,144.6v5.2c0,2.2-1,3.1-2.8,3.1c-1.8,0-2.8-1-2.8-3.1v-5.2h-1v5.2c0,2.6,1.4,4,3.7,4s3.7-1.4,3.7-4
			v-5.2H270.7z"/>
		<path fill="#EFEFEF" d="M285.9,144.6l-3.1,5.1l-3.1-5.1h-1l3.6,6v3.2h1v-3.2l3.6-6H285.9z"/>
		<path fill="#EFEFEF" d="M314.8,144.6l-2.7,7.9l-2.7-7.9h-0.9l-2.7,7.8l-2.6-7.8h-1l3.1,9.1h1l2.7-7.8l2.7,7.8h1l3.1-9.1H314.8z"/>
		<path fill="#EFEFEF" d="M323.2,144.6v9.1h1v-9.1H323.2z"/>
		<path fill="#EFEFEF" d="M331.4,144.6v0.8h3.2v8.3h1v-8.3h3.2v-0.8H331.4z"/>
		<path fill="#EFEFEF" d="M352.7,144.6v4.1H347v-4.1h-1v9.1h1v-4.2h5.7v4.2h1v-9.1H352.7z"/>
		<path fill="#EFEFEF" d="M374.8,144.6h-3.4v9.1h1v-2.9h2.5c2.3,0,3.7-1.2,3.7-3.1C378.5,145.8,377.1,144.6,374.8,144.6z M374.8,150
			h-2.4v-4.5h2.4c1.8,0,2.8,0.8,2.8,2.3C377.6,149.2,376.6,150,374.8,150z"/>
		<path fill="#EFEFEF" d="M391.4,150.6c1.3-0.4,2.1-1.4,2.1-2.9c0-2-1.4-3.1-3.7-3.1h-3.4v9.1h1v-2.9h2.4c0.3,0,0.5,0,0.7,0l2.1,2.9
			h1.1L391.4,150.6z M389.7,150h-2.4v-4.6h2.4c1.8,0,2.8,0.8,2.8,2.3C392.5,149.2,391.5,150,389.7,150z"/>
		<path fill="#EFEFEF" d="M402.4,152.9v-3.4h4.7v-0.8h-4.7v-3.2h5.3v-0.8h-6.3v9.1h6.4v-0.8H402.4z"/>
		<path fill="#EFEFEF" d="M424.5,144.6l-3.9,6.7l-4-6.7h-0.8v9.1h0.9v-7.2l3.6,6.1h0.5l3.6-6.1v7.3h0.9v-9.1H424.5z"/>
		<path fill="#EFEFEF" d="M434,144.6v9.1h1v-9.1H434z"/>
		<path fill="#EFEFEF" d="M450.1,144.6v5.2c0,2.2-1,3.1-2.8,3.1c-1.8,0-2.8-1-2.8-3.1v-5.2h-1v5.2c0,2.6,1.4,4,3.8,4s3.7-1.4,3.7-4
			v-5.2H450.1z"/>
		<path fill="#EFEFEF" d="M468.3,144.6l-3.9,6.7l-4-6.7h-0.8v9.1h0.9v-7.2l3.6,6.1h0.5l3.6-6.1v7.3h0.9v-9.1H468.3z"/>
	</g>
</g>
</svg>
